<svg width="49" height="90" viewBox="0 0 49 90" fill="none" xmlns="http://www.w3.org/2000/svg">
<path d="M33.456 90C32.5173 90 31.7493 89.7013 31.152 89.104C30.64 88.5067 30.384 87.7813 30.384 86.928V20.624L10.928 35.6C10.16 36.112 9.392 36.3253 8.624 36.24C7.856 36.0693 7.17333 35.6 6.576 34.832L1.2 27.92C0.688 27.152 0.474667 26.3413 0.56 25.488C0.730667 24.6347 1.2 23.952 1.968 23.44L30.64 1.296C31.152 0.869331 31.664 0.61333 32.176 0.527992C32.688 0.44266 33.2427 0.399994 33.84 0.399994H45.104C45.9573 0.399994 46.6827 0.698662 47.28 1.296C47.8773 1.89333 48.176 2.61866 48.176 3.47199V86.928C48.176 87.7813 47.8773 88.5067 47.28 89.104C46.6827 89.7013 45.9573 90 45.104 90H33.456Z" fill="#494949" fill-opacity="0.5"/>
</svg>
