<svg width="69" height="92" viewBox="0 0 69 92" fill="none" xmlns="http://www.w3.org/2000/svg">
<path d="M3.832 92C2.97867 92 2.25333 91.7013 1.656 91.104C1.05867 90.5067 0.76 89.7813 0.76 88.928V82.4C0.76 81.632 0.930667 80.736 1.272 79.712C1.69867 78.6027 2.59467 77.4933 3.96 76.384L24.184 56.288C29.816 51.8507 34.3387 48.096 37.752 45.024C41.2507 41.8667 43.768 39.008 45.304 36.448C46.9253 33.8027 47.736 31.2 47.736 28.64C47.736 24.8 46.6693 21.6853 44.536 19.296C42.488 16.9067 39.2027 15.712 34.68 15.712C31.6933 15.712 29.176 16.352 27.128 17.632C25.08 18.8267 23.4587 20.448 22.264 22.496C21.1547 24.544 20.3867 26.8053 19.96 29.28C19.7893 30.3893 19.32 31.1573 18.552 31.584C17.784 32.0107 17.016 32.224 16.248 32.224H4.856C4.088 32.224 3.448 31.968 2.936 31.456C2.424 30.944 2.168 30.3467 2.168 29.664C2.25333 25.9947 3.02133 22.4533 4.472 19.04C5.92267 15.5413 8.01333 12.4693 10.744 9.824C13.56 7.09333 16.9733 4.91733 20.984 3.296C24.9947 1.67466 29.5173 0.863998 34.552 0.863998C41.6347 0.863998 47.48 2.05866 52.088 4.448C56.7813 6.83733 60.28 10.08 62.584 14.176C64.9733 18.272 66.168 22.88 66.168 28C66.168 32.0107 65.4 35.7227 63.864 39.136C62.328 42.464 60.1093 45.7067 57.208 48.864C54.3067 51.936 50.808 55.0933 46.712 58.336L28.536 76.768H65.016C65.9547 76.768 66.68 77.0667 67.192 77.664C67.7893 78.176 68.088 78.9013 68.088 79.84V88.928C68.088 89.7813 67.7893 90.5067 67.192 91.104C66.68 91.7013 65.9547 92 65.016 92H3.832Z" fill="#494949" fill-opacity="0.5"/>
</svg>
