<svg width="71" height="92" viewBox="0 0 71 92" fill="none" xmlns="http://www.w3.org/2000/svg">
<path d="M35.808 91.28C29.8347 91.28 24.672 90.5547 20.32 89.104C15.968 87.6533 12.3413 85.776 9.44 83.472C6.624 81.0827 4.49067 78.5227 3.04 75.792C1.58933 72.976 0.821334 70.2027 0.736 67.472C0.736 66.704 0.992 66.1067 1.504 65.68C2.10133 65.168 2.784 64.912 3.552 64.912H15.072C15.9253 64.912 16.6507 65.0827 17.248 65.424C17.8453 65.7653 18.3573 66.448 18.784 67.472C19.552 69.776 20.7893 71.6107 22.496 72.976C24.288 74.3413 26.336 75.3227 28.64 75.92C30.944 76.432 33.376 76.688 35.936 76.688C41.056 76.688 45.1093 75.4933 48.096 73.104C51.168 70.6293 52.704 67.1307 52.704 62.608C52.704 58.0853 51.296 54.8427 48.48 52.88C45.664 50.832 41.7387 49.808 36.704 49.808H23.52C22.5813 49.808 21.8133 49.552 21.216 49.04C20.6187 48.4427 20.32 47.6747 20.32 46.736V41.36C20.32 40.5067 20.4907 39.7813 20.832 39.184C21.2587 38.5013 21.6853 37.9467 22.112 37.52L45.024 15.12H8.416C7.47733 15.12 6.70933 14.8213 6.112 14.224C5.6 13.6267 5.344 12.9013 5.344 12.048V3.6C5.344 2.66133 5.6 1.89333 6.112 1.296C6.70933 0.698662 7.47733 0.399994 8.416 0.399994H63.328C64.2667 0.399994 65.0347 0.698662 65.632 1.296C66.2293 1.89333 66.528 2.66133 66.528 3.6V11.28C66.528 12.048 66.3573 12.7307 66.016 13.328C65.6747 13.9253 65.2907 14.4373 64.864 14.864L42.72 37.648L44.256 37.776C49.4613 38.2027 54.0693 39.3973 58.08 41.36C62.176 43.2373 65.3333 46.0107 67.552 49.68C69.856 53.3493 71.008 57.9573 71.008 63.504C71.008 69.3067 69.472 74.2987 66.4 78.48C63.4133 82.576 59.2747 85.7333 53.984 87.952C48.6933 90.1707 42.6347 91.28 35.808 91.28Z" fill="#494949" fill-opacity="0.5"/>
</svg>
